<svg width="62" height="28" viewBox="0 0 62 28" fill="none" xmlns="http://www.w3.org/2000/svg">
<g clip-path="url(#clip0_416_185)">
<path d="M60.998 13.8945C60.7694 10.8551 57.5039 8.43918 51.2996 6.71613C46.7586 5.45706 40.7012 4.63131 35.0989 4.51276C35.0357 4.51072 34.9643 4.50459 34.8887 4.5005C34.4928 4.47393 33.4356 4.39626 33.3132 5.32216C33.2764 5.59196 33.3601 5.86177 33.5397 6.06207C33.8826 6.44429 34.4132 6.43816 34.8398 6.43407H35.0561C44.6055 6.47086 57.2631 9.48363 58.6611 13.1689C58.7999 13.5347 59.2224 14.6487 57.1733 16.4351C54.1977 18.5669 47.877 21.1791 34.6193 21.5961H34.5887C34.2724 21.6104 33.7928 21.6328 33.4866 21.9946C33.3234 22.1908 33.2479 22.4402 33.2825 22.6957C33.3315 23.0718 33.5846 23.5153 34.4867 23.5153C34.5091 23.5133 34.5316 23.5133 34.554 23.5133H34.6765C40.3461 23.4009 46.4974 22.5628 51.1302 21.2813C57.4488 19.5317 60.7673 17.0851 60.9939 14.011L61 13.9517L60.9939 13.8924L60.998 13.8945Z" fill="white"/>
<path d="M27.1603 21.5694H26.9439C17.3946 21.5326 4.73689 18.5198 3.33887 14.8346C3.20009 14.4687 2.77762 13.3548 4.82669 11.5684C7.80232 9.43655 14.123 6.82439 27.3807 6.40743H27.4113C27.7276 6.39312 28.2052 6.37064 28.5134 6.00886C28.6787 5.81264 28.7522 5.56123 28.7175 5.30574C28.6644 4.91944 28.397 4.46364 27.446 4.48612H27.3235C21.6539 4.59854 15.5026 5.43655 10.8698 6.71811C4.54913 8.46977 1.23266 10.9143 1.00408 13.9884L1 14.0477L1.00408 14.107C1.23266 17.1463 4.4981 19.5602 10.7024 21.2833C15.2434 22.5423 21.2988 23.3681 26.9031 23.4846C26.9643 23.4866 27.0378 23.4928 27.1133 23.4968C27.199 23.505 27.3154 23.5112 27.4439 23.5112V23.5193C27.9195 23.5193 28.5909 23.409 28.6869 22.6834C28.7236 22.4136 28.6399 22.1438 28.4603 21.9434C28.1174 21.5612 27.5848 21.5674 27.1603 21.5715V21.5694Z" fill="white"/>
<path d="M43.3567 14.9147C44.4506 14.8574 45.1751 14.8206 45.1751 14.001C45.1751 13.1814 44.4526 13.1446 43.3567 13.0874C42.6771 13.0526 41.7036 13.0199 40.4688 12.9934C38.1993 12.9443 35.2625 12.9157 32.1032 12.9116C32.097 9.79049 32.0685 6.88809 32.0195 4.64793C31.993 3.42769 31.9603 2.46704 31.9256 1.79663C31.8685 0.715381 31.8317 0 31.0011 0C30.1704 0 30.1337 0.713337 30.0765 1.79663C30.0418 2.46909 30.0092 3.42769 29.9827 4.64793C29.9337 6.89014 29.9051 9.79049 29.899 12.9116C26.7397 12.9177 23.8008 12.9463 21.5333 12.9934C20.2966 13.0199 19.3251 13.0526 18.6455 13.0874C17.5515 13.1446 16.827 13.1814 16.827 14.001C16.827 14.8206 17.5495 14.8574 18.6455 14.9147C19.3251 14.9494 20.2986 14.9821 21.5333 15.0087C23.8008 15.0577 26.7397 15.0864 29.899 15.0904C29.9051 18.2095 29.9337 21.1099 29.9827 23.3521C30.0092 24.5723 30.0418 25.533 30.0765 26.2034C30.1337 27.2846 30.1704 28 31.0011 28C31.8317 28 31.8685 27.2867 31.9256 26.2034C31.9603 25.5309 31.993 24.5723 32.0195 23.3521C32.0685 21.1139 32.097 18.2115 32.1032 15.0904C35.2625 15.0843 38.2014 15.0557 40.4688 15.0087C41.7056 14.9821 42.6771 14.9494 43.3567 14.9147Z" fill="white"/>
</g>
<defs>
<clipPath id="clip0_416_185">
<rect width="62" height="28" fill="white"/>
</clipPath>
</defs>
</svg>
