<svg width="54" height="24" viewBox="0 0 54 24" fill="none" xmlns="http://www.w3.org/2000/svg">
<path d="M52.2843 11.9095C52.0883 9.30439 49.2894 7.23358 43.9714 5.75669C40.0791 4.67748 34.887 3.9697 30.0851 3.86808C30.0309 3.86633 29.9696 3.86107 29.9049 3.85757C29.5655 3.83479 28.6594 3.76822 28.5544 4.56185C28.5229 4.79311 28.5947 5.02437 28.7486 5.19606C29.0425 5.52368 29.4973 5.51842 29.8629 5.51492H30.0483C38.2335 5.54645 49.0829 8.12883 50.2812 11.2876C50.4002 11.6012 50.7623 12.556 49.006 14.0872C46.4554 15.9145 41.0377 18.1535 29.674 18.5109H29.6478C29.3766 18.5232 28.9655 18.5424 28.7031 18.8525C28.5632 19.0207 28.4984 19.2345 28.5282 19.4535C28.5702 19.7758 28.7871 20.156 29.5603 20.156C29.5795 20.1542 29.5988 20.1542 29.618 20.1542H29.723C34.5826 20.0579 39.8552 19.3396 43.8262 18.2411C49.2421 16.7414 52.0866 14.6443 52.2808 12.0094L52.286 11.9586L52.2808 11.9078L52.2843 11.9095Z" fill="#1C1C1C"/>
<path d="M23.2805 18.4881H23.0951C14.9099 18.4565 4.06047 15.8742 2.86217 12.7154C2.74321 12.4018 2.3811 11.447 4.13744 9.91576C6.68798 8.08847 12.1057 5.84948 23.4694 5.49208H23.4957C23.7668 5.47982 24.1762 5.46055 24.4403 5.15045C24.582 4.98226 24.645 4.76677 24.6152 4.54778C24.5698 4.21666 24.3406 3.82597 23.5254 3.84525H23.4204C18.5608 3.9416 13.2883 4.6599 9.31724 5.75838C3.89953 7.2598 1.05685 9.35513 0.860921 11.9901L0.857422 12.0409L0.860921 12.0917C1.05685 14.6968 3.8558 16.7659 9.1738 18.2428C13.0661 19.322 18.2564 20.0298 23.0601 20.1296C23.1126 20.1314 23.1755 20.1366 23.2403 20.1402C23.3137 20.1472 23.4135 20.1524 23.5237 20.1524V20.1594C23.9313 20.1594 24.5068 20.0648 24.589 19.4429C24.6205 19.2116 24.5488 18.9804 24.3948 18.8087C24.1009 18.4811 23.6444 18.4863 23.2805 18.4898V18.4881Z" fill="#1C1C1C"/>
<path d="M37.1631 12.784C38.1008 12.7349 38.7218 12.7034 38.7218 12.0009C38.7218 11.2983 38.1025 11.2668 37.1631 11.2178C36.5806 11.188 35.7462 11.1599 34.6878 11.1372C32.7426 11.0951 30.2253 11.0706 27.5173 11.0671C27.512 8.39185 27.4875 5.90408 27.4455 3.98394C27.4228 2.93802 27.3948 2.11461 27.3651 1.53997C27.3161 0.613183 27.2846 0 26.5726 0C25.8606 0 25.8292 0.611431 25.7802 1.53997C25.7504 2.11636 25.7224 2.93802 25.6997 3.98394C25.6577 5.90583 25.6332 8.39185 25.628 11.0671C22.92 11.0723 20.4009 11.0969 18.4574 11.1372C17.3973 11.1599 16.5646 11.188 15.9821 11.2178C15.0445 11.2668 14.4234 11.2983 14.4234 12.0009C14.4234 12.7034 15.0427 12.7349 15.9821 12.784C16.5646 12.8138 17.3991 12.8418 18.4574 12.8646C20.4009 12.9066 22.92 12.9312 25.628 12.9347C25.6332 15.6081 25.6577 18.0942 25.6997 20.0161C25.7224 21.062 25.7504 21.8854 25.7802 22.46C25.8292 23.3868 25.8606 24 26.5726 24C27.2846 24 27.3161 23.3886 27.3651 22.46C27.3948 21.8836 27.4228 21.062 27.4455 20.0161C27.4875 18.0977 27.512 15.6099 27.5173 12.9347C30.2253 12.9294 32.7443 12.9049 34.6878 12.8646C35.7479 12.8418 36.5806 12.8138 37.1631 12.784Z" fill="#1C1C1C"/>
</svg>
