<svg width="36" height="36" viewBox="0 0 36 36" fill="none" xmlns="http://www.w3.org/2000/svg">
<path d="M30.375 14.625V15.75C30.3726 17.6535 29.6816 19.4919 28.4296 20.9257C27.1775 22.3594 25.449 23.2918 23.5631 23.5505C24.3329 24.5355 24.7507 25.7499 24.75 27V32.625C24.75 32.9234 24.6315 33.2095 24.4205 33.4205C24.2095 33.6315 23.9234 33.75 23.625 33.75H14.625C14.3266 33.75 14.0405 33.6315 13.8295 33.4205C13.6185 33.2095 13.5 32.9234 13.5 32.625V30.375H10.125C8.63316 30.375 7.20242 29.7824 6.14752 28.7275C5.09263 27.6726 4.5 26.2419 4.5 24.75C4.5 23.8549 4.14442 22.9965 3.51149 22.3635C2.87855 21.7306 2.02011 21.375 1.125 21.375C0.826631 21.375 0.540483 21.2565 0.329505 21.0455C0.118526 20.8345 0 20.5484 0 20.25C0 19.9517 0.118526 19.6655 0.329505 19.4545C0.540483 19.2435 0.826631 19.125 1.125 19.125C1.86369 19.125 2.59514 19.2705 3.27759 19.5532C3.96005 19.8359 4.58015 20.2502 5.10248 20.7725C5.6248 21.2949 6.03914 21.915 6.32182 22.5974C6.60451 23.2799 6.75 24.0113 6.75 24.75C6.75 25.6451 7.10558 26.5036 7.73851 27.1365C8.37145 27.7694 9.22989 28.125 10.125 28.125H13.5V27C13.4993 25.7499 13.9171 24.5355 14.6869 23.5505C12.801 23.2918 11.0725 22.3594 9.82044 20.9257C8.56838 19.4919 7.87737 17.6535 7.875 15.75V14.625C7.88901 13.2269 8.26134 11.8557 8.95641 10.6425C8.61254 9.53326 8.50223 8.36479 8.63245 7.21078C8.76266 6.05677 9.13057 4.94226 9.71297 3.93752C9.81173 3.76646 9.95379 3.62442 10.1249 3.52568C10.2959 3.42694 10.49 3.37497 10.6875 3.37502C11.9979 3.37228 13.2907 3.67605 14.4627 4.26206C15.6348 4.84807 16.6535 5.70008 17.4375 6.75002H20.8125C21.5965 5.70008 22.6152 4.84807 23.7873 4.26206C24.9593 3.67605 26.2521 3.37228 27.5625 3.37502C27.76 3.37497 27.9541 3.42694 28.1251 3.52568C28.2962 3.62442 28.4383 3.76646 28.537 3.93752C29.1195 4.94224 29.4874 6.05681 29.6173 7.21087C29.7473 8.36493 29.6366 9.53341 29.2922 10.6425C29.9886 11.8552 30.3614 13.2266 30.375 14.625Z" fill="#1F1E1B"/>
</svg>
