<svg width="36" height="36" viewBox="0 0 36 36" fill="none" xmlns="http://www.w3.org/2000/svg">
<path d="M30.2344 30.9164C30.1376 31.0928 29.9951 31.2401 29.822 31.3427C29.6489 31.4454 29.4513 31.4997 29.2501 31.5H22.5001C22.3107 31.4999 22.1245 31.4521 21.9585 31.3609C21.7926 31.2697 21.6524 31.1381 21.5508 30.9783L15.8569 22.0303L7.58256 31.1316C7.38085 31.3482 7.10187 31.4767 6.80609 31.489C6.51032 31.5014 6.22159 31.3967 6.00251 31.1976C5.78343 30.9985 5.65166 30.7211 5.63575 30.4255C5.61985 30.1298 5.7211 29.8399 5.91756 29.6184L14.604 20.0559L5.80084 6.22969C5.69242 6.05959 5.63173 5.86348 5.62512 5.66187C5.61851 5.46027 5.66622 5.2606 5.76326 5.08377C5.8603 4.90693 6.00311 4.75944 6.17671 4.65674C6.35032 4.55404 6.54835 4.4999 6.75006 4.5H13.5001C13.6894 4.50006 13.8757 4.5479 14.0416 4.6391C14.2075 4.7303 14.3477 4.8619 14.4493 5.02172L20.1432 13.9697L28.4176 4.86844C28.6193 4.65176 28.8983 4.52332 29.194 4.51096C29.4898 4.49861 29.7785 4.60333 29.9976 4.80242C30.2167 5.00152 30.3485 5.27894 30.3644 5.57455C30.3803 5.87015 30.279 6.16011 30.0826 6.38156L21.3962 15.937L30.1993 29.7717C30.3071 29.9419 30.3672 30.1379 30.3734 30.3393C30.3796 30.5406 30.3316 30.7399 30.2344 30.9164Z" fill="#1F1E1B"/>
</svg>
