<svg width="240" height="60" viewBox="0 0 240 60" fill="none" xmlns="http://www.w3.org/2000/svg">
<path d="M57.0718 2.34934C57.7566 0.479336 59.626 -0.620295 61.3354 0.37473C62.8848 1.30473 63.3101 3.31936 63.52 5.01438C64.1493 11.7825 64.2755 18.7575 64.4087 25.5876C67.9988 25.6657 71.6905 25.7685 75.2065 25.8747C79.1217 26.1247 83.1923 26.0149 87.0425 26.8796C91.4373 28.1343 90.6973 32.6024 86.3823 33.3122C80.592 34.157 75.7211 34.0875 69.6958 34.3025C67.9166 34.3476 66.159 34.3973 64.4106 34.4363C64.3326 38.0178 64.2304 41.6996 64.1245 45.2068C63.8746 49.122 63.9844 53.1925 63.1196 57.0427C61.8649 61.4375 57.3968 60.6976 56.687 56.3825C55.8423 50.5924 55.9127 45.7221 55.6978 39.697C55.6529 37.9282 55.6019 36.1803 55.563 34.4421C55.2343 34.4319 54.9053 34.4203 54.5757 34.407C50.4955 34.297 46.6045 34.2424 42.5493 34.0525C39.1793 33.7676 35.5942 33.9871 32.3491 32.9275C30.4791 32.2426 29.3795 30.3732 30.3745 28.6638C31.3046 27.1145 33.3192 26.6892 35.0142 26.4792C41.772 25.8509 48.7359 25.7235 55.5562 25.5906C55.5666 25.2528 55.5786 24.9146 55.5923 24.5759C55.7022 20.4958 55.7569 16.6056 55.9468 12.5505C56.2317 9.18033 56.0121 5.59451 57.0718 2.34934ZM38.0444 9.06907C41.5194 8.9041 44.9995 8.76409 44.9995 12.0534C44.9995 15.0428 41.5991 15.5427 41.5991 15.5427C34.6193 16.5425 23.1282 18.5376 17.1704 21.0271C8.2116 24.7712 7.4732 28.4949 7.47314 29.9997C7.47314 31.5044 8.21129 35.2291 17.1704 38.9734C23.1282 41.4627 34.6194 43.462 41.5991 44.4568C41.5991 44.4568 44.9993 44.9569 44.9995 47.946C44.9995 51.2354 41.5144 51.0954 38.0444 50.9304C17.1649 49.9405 -0.000488281 41.3374 -0.000488281 29.8747C-0.000309837 18.4121 17.165 10.0689 38.0444 9.06907ZM74.9995 12.0534C74.9995 8.76409 78.4796 8.9041 81.9546 9.06907C102.834 10.0589 120 18.4022 120 29.865V29.8747C120 41.3374 102.834 49.9406 81.9546 50.9304C78.4846 51.0954 74.9995 51.2354 74.9995 47.946C74.9998 44.9569 78.3999 44.4568 78.3999 44.4568C85.3798 43.462 96.8718 41.4629 102.83 38.9734C111.788 35.2291 112.526 31.5044 112.526 29.9997C112.526 28.495 111.788 24.7711 102.83 21.0271C96.8718 18.5376 85.3798 16.5425 78.3999 15.5427C78.3999 15.5427 74.9995 15.0428 74.9995 12.0534Z" fill="black"/>
<path d="M196.095 3.40985C200.685 1.01122 205.818 -0.157553 210.994 0.0182482L211.249 0.0280138C216.583 0.256085 221.762 1.90509 226.248 4.80633C230.805 7.75367 234.478 11.8828 236.873 16.7536C238.759 20.5895 239.796 24.7721 239.933 29.0182C239.937 29.0167 239.942 29.0159 239.947 29.0143C239.954 29.0774 241.826 47.6744 222.531 57.3825C222.468 57.4129 213.103 61.8741 202.77 59.0798C202.659 59.0522 202.548 59.0237 202.437 58.9948C201.332 58.7569 192.009 56.5156 185.521 47.3181C184.602 46.0204 183.783 44.6472 183.076 43.2097C180.791 38.5618 179.748 33.4007 180.051 28.2302C180.353 23.0594 181.99 18.0546 184.802 13.7048C187.613 9.35497 191.505 5.80851 196.095 3.40985ZM210.017 4.2868C205.864 4.28034 201.767 5.28062 198.079 7.2077C194.145 9.26345 190.811 12.304 188.401 16.0319C185.992 19.7599 184.588 24.0486 184.329 28.4802C184.07 32.9115 184.963 37.3346 186.922 41.3181C187.647 42.7927 188.509 44.1888 189.493 45.489C196.635 43.1524 212.534 37.9543 235.659 30.4128C235.727 26.3448 234.83 22.3097 233.027 18.6442C230.975 14.4698 227.827 10.931 223.921 8.40497C220.015 5.87905 215.496 4.46071 210.848 4.30145L210.017 4.2868Z" fill="black"/>
<rect x="149.5" y="14.9961" width="1" height="30" fill="black"/>
</svg>
