<svg width="36" height="36" viewBox="0 0 36 36" fill="none" xmlns="http://www.w3.org/2000/svg">
<path d="M30.0459 11.5791L22.1709 3.70406C22.0664 3.59962 21.9423 3.51681 21.8057 3.46035C21.6691 3.40389 21.5228 3.37488 21.375 3.375H7.875C7.27826 3.375 6.70597 3.61205 6.28401 4.03401C5.86205 4.45597 5.625 5.02826 5.625 5.625V30.375C5.625 30.9717 5.86205 31.544 6.28401 31.966C6.70597 32.3879 7.27826 32.625 7.875 32.625H28.125C28.7217 32.625 29.294 32.3879 29.716 31.966C30.1379 31.544 30.375 30.9717 30.375 30.375V12.375C30.3751 12.2272 30.3461 12.0809 30.2897 11.9443C30.2332 11.8077 30.1504 11.6836 30.0459 11.5791ZM21.375 12.375V6.1875L27.5625 12.375H21.375Z" fill="#1F1E1B"/>
</svg>
