<svg width="24" height="24" viewBox="0 0 24 24" fill="none" xmlns="http://www.w3.org/2000/svg">
<path d="M11.25 20.25C11.25 20.4489 11.171 20.6397 11.0303 20.7803C10.8897 20.921 10.6989 21 10.5 21H4.5C4.30109 21 4.11032 20.921 3.96967 20.7803C3.82902 20.6397 3.75 20.4489 3.75 20.25V3.75C3.75 3.55109 3.82902 3.36032 3.96967 3.21967C4.11032 3.07902 4.30109 3 4.5 3H10.5C10.6989 3 10.8897 3.07902 11.0303 3.21967C11.171 3.36032 11.25 3.55109 11.25 3.75C11.25 3.94891 11.171 4.13968 11.0303 4.28033C10.8897 4.42098 10.6989 4.5 10.5 4.5H5.25V19.5H10.5C10.6989 19.5 10.8897 19.579 11.0303 19.7197C11.171 19.8603 11.25 20.0511 11.25 20.25ZM21.5306 11.4694L17.7806 7.71937C17.6757 7.61437 17.542 7.54284 17.3965 7.51385C17.2509 7.48487 17.1 7.49972 16.9629 7.55653C16.8258 7.61335 16.7086 7.70957 16.6262 7.83301C16.5438 7.95646 16.4999 8.10158 16.5 8.25V11.25H10.5C10.3011 11.25 10.1103 11.329 9.96967 11.4697C9.82902 11.6103 9.75 11.8011 9.75 12C9.75 12.1989 9.82902 12.3897 9.96967 12.5303C10.1103 12.671 10.3011 12.75 10.5 12.75H16.5V15.75C16.4999 15.8984 16.5438 16.0435 16.6262 16.167C16.7086 16.2904 16.8258 16.3867 16.9629 16.4435C17.1 16.5003 17.2509 16.5151 17.3965 16.4861C17.542 16.4572 17.6757 16.3856 17.7806 16.2806L21.5306 12.5306C21.6004 12.461 21.6557 12.3783 21.6934 12.2872C21.7312 12.1962 21.7506 12.0986 21.7506 12C21.7506 11.9014 21.7312 11.8038 21.6934 11.7128C21.6557 11.6217 21.6004 11.539 21.5306 11.4694Z" fill="#122B5C"/>
</svg>
