<svg width="24" height="24" viewBox="0 0 24 24" fill="none" xmlns="http://www.w3.org/2000/svg">
<path d="M18 12.75V19.5C18 19.8978 17.842 20.2794 17.5607 20.5607C17.2794 20.842 16.8978 21 16.5 21H4.5C4.10218 21 3.72064 20.842 3.43934 20.5607C3.15804 20.2794 3 19.8978 3 19.5V7.5C3 7.10218 3.15804 6.72064 3.43934 6.43934C3.72064 6.15804 4.10218 6 4.5 6H11.25C11.4489 6 11.6397 6.07902 11.7803 6.21967C11.921 6.36032 12 6.55109 12 6.75C12 6.94891 11.921 7.13968 11.7803 7.28033C11.6397 7.42098 11.4489 7.5 11.25 7.5H4.5V19.5H16.5V12.75C16.5 12.5511 16.579 12.3603 16.7197 12.2197C16.8603 12.079 17.0511 12 17.25 12C17.4489 12 17.6397 12.079 17.7803 12.2197C17.921 12.3603 18 12.5511 18 12.75ZM21 3.75C21 3.55109 20.921 3.36032 20.7803 3.21967C20.6397 3.07902 20.4489 3 20.25 3H14.25C14.1016 2.99988 13.9565 3.04381 13.833 3.12621C13.7096 3.20861 13.6133 3.32579 13.5565 3.46291C13.4997 3.60002 13.4849 3.75092 13.5139 3.89648C13.5428 4.04204 13.6144 4.17573 13.7194 4.28063L16.1897 6.75L12.2194 10.7194C12.0786 10.8601 11.9996 11.051 11.9996 11.25C11.9996 11.449 12.0786 11.6399 12.2194 11.7806C12.3601 11.9214 12.551 12.0004 12.75 12.0004C12.949 12.0004 13.1399 11.9214 13.2806 11.7806L17.25 7.81031L19.7194 10.2806C19.8243 10.3856 19.958 10.4572 20.1035 10.4861C20.2491 10.5151 20.4 10.5003 20.5371 10.4435C20.6742 10.3867 20.7914 10.2904 20.8738 10.167C20.9562 10.0435 21.0001 9.89842 21 9.75V3.75Z" fill="#122B5C"/>
</svg>
